<?xml version="1.0" standalone="no"?>
<!DOCTYPE svg PUBLIC "-//W3C//DTD SVG 20010904//EN"
 "http://www.w3.org/TR/2001/REC-SVG-20010904/DTD/svg10.dtd">
<svg version="1.0" xmlns="http://www.w3.org/2000/svg"
 width="600.000000pt" height="400.000000pt" viewBox="0 0 600.000000 400.000000"
 preserveAspectRatio="xMidYMid meet">
<g transform="translate(0.000000,400.000000) scale(0.100000,-0.100000)"
fill="#000000" stroke="none">
<path d="M1840 2486 c-25 -6 -52 -16 -61 -21 -32 -20 -269 -249 -295 -286 -75
-109 -34 -254 88 -309 47 -22 112 -26 154 -10 26 10 164 137 164 151 0 4 -21
22 -46 39 -37 24 -49 28 -55 18 -5 -7 -9 -15 -9 -18 0 -3 -17 -24 -39 -48 -34
-37 -44 -42 -83 -42 -62 0 -98 35 -98 95 0 42 4 47 142 184 78 78 152 144 166
148 13 3 42 3 65 0 36 -5 47 -1 76 23 l34 29 -24 20 c-13 11 -46 25 -72 30
-56 13 -50 13 -107 -3z m131 -26 c18 -10 27 -38 12 -42 -5 0 -29 -2 -54 -3
-26 -1 -59 -6 -75 -10 -16 -5 -33 -7 -37 -6 -5 1 -6 -3 -2 -8 7 -12 -29 -33
-39 -23 -4 3 -4 -2 0 -12 5 -14 3 -17 -7 -14 -8 3 -19 -5 -24 -16 -6 -12 -17
-21 -25 -21 -8 -1 -14 -6 -13 -12 1 -6 -29 -41 -67 -78 -39 -37 -70 -71 -70
-77 0 -5 -4 -6 -10 -3 -5 3 -10 -3 -10 -15 0 -12 -4 -19 -9 -16 -13 8 -6 -81
8 -97 9 -12 9 -16 -1 -20 -9 -4 -7 -6 4 -6 9 -1 23 -10 31 -22 11 -16 27 -20
71 -22 55 -2 57 -1 98 44 48 52 68 62 85 44 14 -15 -9 -50 -61 -95 -58 -49
-64 -52 -88 -39 -22 11 -22 11 -8 -6 14 -17 13 -17 -10 -10 -14 5 -37 9 -52
10 -50 3 -114 58 -133 115 -1 3 -5 12 -9 21 -12 27 -1 96 20 125 10 15 24 34
29 42 13 21 32 42 38 42 2 0 48 43 101 95 53 52 101 95 107 95 5 0 7 5 3 12
-5 8 -2 9 9 5 10 -3 17 -3 17 1 0 25 133 42 171 22z"/>
<path d="M2129 2407 c-15 -7 -79 -62 -143 -123 l-116 -110 44 -32 c24 -18 48
-32 52 -32 5 0 50 42 101 92 86 85 96 93 132 93 51 0 81 -27 81 -72 0 -19 -4
-42 -9 -51 -18 -33 -262 -267 -292 -280 -24 -10 -39 -10 -66 -1 -29 9 -37 8
-54 -7 -11 -10 -36 -28 -56 -40 l-37 -22 44 -22 c26 -13 71 -25 107 -28 104
-8 136 10 301 172 79 78 153 158 163 178 23 44 25 125 5 171 -41 97 -169 154
-257 114z m167 -34 c49 -31 88 -95 86 -143 -3 -69 -13 -112 -27 -106 -9 3 -12
0 -9 -8 3 -7 -2 -16 -11 -20 -9 -3 -13 -11 -9 -18 5 -8 2 -9 -9 -5 -9 3 -16 3
-14 -2 3 -11 -108 -121 -122 -121 -6 0 -11 -3 -11 -8 0 -4 -16 -25 -36 -47
-20 -22 -31 -31 -23 -20 8 11 -6 1 -29 -23 -27 -27 -49 -41 -58 -38 -9 3 -12
1 -9 -4 6 -10 -2 -12 -82 -16 -28 -1 -41 2 -36 9 3 6 1 7 -6 3 -16 -10 -51 3
-51 18 0 7 9 21 20 31 11 10 20 15 20 11 0 -4 8 -2 19 3 10 6 22 7 26 3 9 -9
58 -10 70 -1 6 5 29 24 51 43 23 20 47 36 53 36 7 0 10 3 8 8 -2 4 10 21 26
37 17 17 27 23 23 15 -4 -8 -1 -6 6 4 7 11 35 42 61 70 60 63 74 90 72 139 -2
48 -34 82 -79 85 -51 4 -76 -10 -156 -87 -41 -39 -80 -71 -88 -71 -7 0 -10 -4
-7 -10 12 -20 -12 -9 -35 15 l-24 26 78 77 c43 43 82 86 87 95 6 9 16 17 23
17 8 0 19 6 26 14 27 33 115 27 176 -11z"/>
<path d="M2651 2333 c-41 -20 -71 -67 -71 -110 0 -52 40 -90 123 -114 78 -23
107 -42 107 -69 0 -52 -103 -70 -178 -31 l-39 20 -12 -25 c-17 -38 -15 -41 44
-63 133 -50 260 1 260 104 0 60 -30 90 -120 117 -38 11 -78 28 -87 36 -22 18
-23 55 -3 72 24 20 88 23 129 6 22 -9 40 -15 41 -14 14 18 25 52 18 58 -35 31
-159 39 -212 13z"/>
<path d="M2940 2139 l0 -209 40 0 40 0 0 95 c0 110 14 135 73 135 56 0 67 -22
67 -133 l0 -97 41 0 41 0 -4 109 c-4 126 -18 157 -82 178 -30 10 -44 10 -79
-2 -23 -8 -43 -19 -45 -25 -2 -5 -7 -10 -11 -10 -4 0 -5 38 -3 84 l4 83 -41 0
-41 0 0 -208z"/>
<path d="M4144 2339 c-2 -4 -3 -97 -3 -208 l1 -201 39 0 39 0 0 209 0 209 -36
-1 c-19 -1 -37 -4 -40 -8z"/>
<path d="M3970 2300 c-34 -5 -35 -6 -32 -42 3 -36 2 -38 -27 -38 -28 0 -31 -3
-31 -30 0 -27 3 -30 30 -30 l30 0 0 -93 c0 -84 2 -96 23 -114 27 -25 68 -36
102 -27 20 5 25 13 25 35 0 26 -3 29 -25 23 -44 -11 -55 9 -55 101 l0 83 40
-5 c39 -6 40 -5 40 26 0 29 -2 31 -39 31 -40 0 -40 0 -43 43 -3 42 -3 42 -38
37z m19 -99 c15 -27 -9 -46 -34 -27 -16 12 -17 16 -6 30 18 21 28 20 40 -3z"/>
<path d="M3782 2214 c-17 -7 -35 -20 -41 -31 -9 -16 -10 -15 -11 10 0 24 -4
27 -35 27 l-35 0 0 -145 0 -145 38 0 37 0 -3 75 c-6 111 20 155 92 155 19 0
25 6 28 29 4 24 0 30 -18 34 -12 2 -36 -2 -52 -9z"/>
<path d="M3360 2201 c-45 -24 -73 -72 -73 -126 0 -92 81 -162 178 -151 147 16
197 193 76 273 -44 30 -130 31 -181 4z m148 -64 c16 -15 22 -32 22 -63 0 -53
-24 -83 -72 -91 -32 -5 -41 -1 -68 25 -86 87 27 211 118 129z"/>
<path d="M4260 2217 c0 -2 28 -65 63 -142 l63 -138 -34 -64 -34 -64 43 3 43 3
92 203 92 202 -42 0 -42 0 -39 -105 c-22 -57 -42 -101 -45 -97 -4 4 -23 51
-44 105 l-38 97 -39 0 c-21 0 -39 -1 -39 -3z"/>
</g>
</svg>
